<svg width="25" height="24" viewBox="0 0 25 24" fill="none" xmlns="http://www.w3.org/2000/svg">
<path d="M12.75 2C13.646 2 14.514 2.118 15.34 2.339L13.214 4.464C13.0527 4.62593 12.9105 4.80577 12.79 5H12.75C11.3655 5 10.0122 5.41054 8.86101 6.17971C7.70986 6.94888 6.81266 8.04213 6.28284 9.32122C5.75303 10.6003 5.61441 12.0078 5.8845 13.3656C6.1546 14.7235 6.82128 15.9708 7.80025 16.9497C8.77922 17.9287 10.0265 18.5954 11.3844 18.8655C12.7422 19.1356 14.1497 18.997 15.4288 18.4672C16.7079 17.9373 17.8011 17.0401 18.5703 15.889C19.3395 14.7378 19.75 13.3845 19.75 12V11.96C19.942 11.84 20.122 11.699 20.285 11.535L22.411 9.41C22.632 10.236 22.75 11.104 22.75 12C22.75 17.523 18.273 22 12.75 22C7.227 22 2.75 17.523 2.75 12C2.75 6.477 7.227 2 12.75 2ZM12.336 7.017C12.336 7.868 12.294 8.731 12.34 9.581L11.8 10.121C11.6142 10.3068 11.4669 10.5273 11.3664 10.77C11.2658 11.0127 11.2141 11.2728 11.2141 11.5355C11.2141 11.7982 11.2658 12.0583 11.3664 12.301C11.4669 12.5437 11.6142 12.7642 11.8 12.95C11.9858 13.1358 12.2063 13.2831 12.449 13.3836C12.6917 13.4842 12.9518 13.5359 13.2145 13.5359C13.4772 13.5359 13.7373 13.4842 13.98 13.3836C14.2227 13.2831 14.4432 13.1358 14.629 12.95L15.169 12.41C16.019 12.456 16.881 12.414 17.733 12.414C17.654 13.3643 17.3049 14.2723 16.7268 15.0307C16.1488 15.7892 15.3659 16.3665 14.4705 16.6946C13.5751 17.0227 12.6045 17.0879 11.6733 16.8825C10.742 16.6771 9.88896 16.2097 9.21465 15.5353C8.54034 14.861 8.07293 14.008 7.86753 13.0767C7.66214 12.1455 7.72734 11.1749 8.05544 10.2795C8.38354 9.38414 8.96085 8.60124 9.71929 8.02317C10.4777 7.44511 11.3857 7.09599 12.336 7.017ZM19.254 2.127C19.4365 2.20268 19.5925 2.33074 19.7024 2.49501C19.8122 2.65928 19.8709 2.8524 19.871 3.05V4.88H21.7C21.8978 4.88004 22.091 4.93871 22.2555 5.0486C22.4199 5.15848 22.548 5.31465 22.6237 5.49735C22.6993 5.68005 22.7192 5.88108 22.6806 6.07503C22.642 6.26898 22.5468 6.44715 22.407 6.587L18.87 10.12C18.6825 10.3075 18.4282 10.4129 18.163 10.413H15.75L13.921 12.242C13.7334 12.4295 13.4789 12.5348 13.2136 12.5347C12.9484 12.5346 12.694 12.4291 12.5065 12.2415C12.319 12.0539 12.2137 11.7994 12.2138 11.5341C12.2139 11.2689 12.3194 11.0145 12.507 10.827L14.336 9V6.586C14.3359 6.45452 14.3617 6.32431 14.412 6.20282C14.4623 6.08134 14.536 5.97096 14.629 5.878L18.164 2.343C18.3038 2.20307 18.4821 2.10776 18.6761 2.06913C18.8701 2.0305 19.0712 2.0503 19.254 2.126V2.127Z" fill="#A0A4B0"/>
</svg>
