<svg width="79" height="79" viewBox="0 0 79 79" fill="currentColor" xmlns="http://www.w3.org/2000/svg">
<path d="M61.6731 0H17.16C7.68281 0 0 7.6828 0 17.16V61.6731C0 71.1503 7.68281 78.8331 17.16 78.8331H61.6731C71.1503 78.8331 78.8331 71.1503 78.8331 61.6731V17.16C78.8331 7.6828 71.1503 0 61.6731 0Z" fill="currentColor"/>
<path d="M49.6834 60.7678C41.8938 61.9948 33.9296 61.8983 26.2044 60.2991C26.1631 60.2899 26.1171 60.2807 26.0757 60.2715C23.1437 59.6603 22.6061 58.5803 22.5187 55.5426C22.2292 45.639 29.8304 38.4745 40.437 38.6491C49.6007 38.8008 56.7882 46.6868 56.3149 55.9884C56.1954 58.3 55.1292 59.8441 52.9325 60.2301C51.8525 60.4231 50.768 60.5978 49.6834 60.7724V60.7678Z" fill="white"/>
<path d="M26.3783 40.5424C21.9987 43.9845 20.0915 48.5066 19.8066 53.8513C19.779 54.3568 18.7496 55.2116 18.189 55.2116C15.62 55.2116 13.0327 55.0829 10.4913 54.7153C9.74682 54.6096 8.75877 53.6813 8.53358 52.9368C7.3617 49.0627 9.54921 43.3687 13.0005 40.7952C16.5575 38.1435 22.3618 37.7437 25.882 39.9174C26.0015 39.9909 26.0704 40.1472 26.3783 40.5424Z" fill="white"/>
<path d="M52.1426 40.5104C59.1279 35.5241 69.4313 40.1703 70.2539 48.7043C70.6078 52.3854 67.7906 55.1658 64.0958 55.2393C63.9993 55.2393 63.9074 55.2485 63.8108 55.2531C59.3485 55.4185 59.2979 55.4277 58.6638 51.186C58.0066 46.7834 56.0351 43.1804 52.1426 40.515V40.5104Z" fill="white"/>
<path d="M56.0298 22.7069C59.6695 21.3283 63.3322 22.8816 64.8212 26.4432C66.2596 29.8807 64.6971 33.8145 61.2596 35.3908C57.7853 36.9855 53.709 35.4414 52.0913 31.9166C50.5242 28.502 51.9305 24.7428 55.4461 22.9551C55.6345 22.877 55.8321 22.7897 56.0298 22.7069Z" fill="white"/>
<path d="M19.7519 22.1462C23.9017 22.0497 27.0084 24.8393 27.1508 28.7915C27.2841 32.5461 24.3659 35.6941 20.6159 35.8366C16.7693 35.9836 13.2905 32.7253 13.2813 28.9799C13.2721 25.0369 15.9192 22.2381 19.7519 22.1508V22.1462Z" fill="white"/>
<path d="M38.7087 13.2951C45.0644 13.1481 49.8255 17.422 50.046 23.4744C50.2528 29.2281 45.7813 34.0489 40.0368 34.2649C34.1452 34.4855 28.8143 29.4993 28.7959 23.7547C28.7821 17.7115 32.8401 13.4284 38.7087 13.2905V13.2951Z" fill="white"/>
</svg>
