<svg width="24" height="24" viewBox="0 0 24 24" fill="none" xmlns="http://www.w3.org/2000/svg">
<path d="M8.625 4.22434C8.32663 4.22434 8.04048 4.34137 7.8295 4.54969C7.61853 4.758 7.5 5.04054 7.5 5.33515C7.5 5.62975 7.61853 5.91229 7.8295 6.12061C8.04048 6.32893 8.32663 6.44596 8.625 6.44596C8.92337 6.44596 9.20952 6.32893 9.4205 6.12061C9.63147 5.91229 9.75 5.62975 9.75 5.33515C9.75 5.04054 9.63147 4.758 9.4205 4.54969C9.20952 4.34137 8.92337 4.22434 8.625 4.22434ZM5.44125 4.22434C5.67368 3.57392 6.10471 3.01071 6.67492 2.61232C7.24514 2.21394 7.92647 2 8.625 2C9.32353 2 10.0049 2.21394 10.5751 2.61232C11.1453 3.01071 11.5763 3.57392 11.8088 4.22434H19.875C20.1734 4.22434 20.4595 4.34137 20.6705 4.54969C20.8815 4.758 21 5.04054 21 5.33515C21 5.62975 20.8815 5.91229 20.6705 6.12061C20.4595 6.32893 20.1734 6.44596 19.875 6.44596H11.8088C11.5763 7.09637 11.1453 7.65959 10.5751 8.05797C10.0049 8.45636 9.32353 8.6703 8.625 8.6703C7.92647 8.6703 7.24514 8.45636 6.67492 8.05797C6.10471 7.65959 5.67368 7.09637 5.44125 6.44596H4.125C3.82663 6.44596 3.54048 6.32893 3.32951 6.12061C3.11853 5.91229 3 5.62975 3 5.33515C3 5.04054 3.11853 4.758 3.32951 4.54969C3.54048 4.34137 3.82663 4.22434 4.125 4.22434H5.44125ZM15.375 10.8892C15.0766 10.8892 14.7905 11.0062 14.5795 11.2145C14.3685 11.4229 14.25 11.7054 14.25 12C14.25 12.2946 14.3685 12.5771 14.5795 12.7855C14.7905 12.9938 15.0766 13.1108 15.375 13.1108C15.6734 13.1108 15.9595 12.9938 16.1705 12.7855C16.3815 12.5771 16.5 12.2946 16.5 12C16.5 11.7054 16.3815 11.4229 16.1705 11.2145C15.9595 11.0062 15.6734 10.8892 15.375 10.8892ZM12.1912 10.8892C12.4237 10.2388 12.8547 9.67556 13.4249 9.27717C13.9951 8.87879 14.6765 8.66485 15.375 8.66485C16.0735 8.66485 16.7549 8.87879 17.3251 9.27717C17.8953 9.67556 18.3263 10.2388 18.5588 10.8892H19.875C20.1734 10.8892 20.4595 11.0062 20.6705 11.2145C20.8815 11.4229 21 11.7054 21 12C21 12.2946 20.8815 12.5771 20.6705 12.7855C20.4595 12.9938 20.1734 13.1108 19.875 13.1108H18.5588C18.3263 13.7612 17.8953 14.3244 17.3251 14.7228C16.7549 15.1212 16.0735 15.3351 15.375 15.3351C14.6765 15.3351 13.9951 15.1212 13.4249 14.7228C12.8547 14.3244 12.4237 13.7612 12.1912 13.1108H4.125C3.82663 13.1108 3.54048 12.9938 3.32951 12.7855C3.11853 12.5771 3 12.2946 3 12C3 11.7054 3.11853 11.4229 3.32951 11.2145C3.54048 11.0062 3.82663 10.8892 4.125 10.8892H12.1912ZM8.625 17.554C8.32663 17.554 8.04048 17.6711 7.8295 17.8794C7.61853 18.0877 7.5 18.3702 7.5 18.6649C7.5 18.9595 7.61853 19.242 7.8295 19.4503C8.04048 19.6586 8.32663 19.7757 8.625 19.7757C8.92337 19.7757 9.20952 19.6586 9.4205 19.4503C9.63147 19.242 9.75 18.9595 9.75 18.6649C9.75 18.3702 9.63147 18.0877 9.4205 17.8794C9.20952 17.6711 8.92337 17.554 8.625 17.554ZM5.44125 17.554C5.67368 16.9036 6.10471 16.3404 6.67492 15.942C7.24514 15.5436 7.92647 15.3297 8.625 15.3297C9.32353 15.3297 10.0049 15.5436 10.5751 15.942C11.1453 16.3404 11.5763 16.9036 11.8088 17.554H19.875C20.1734 17.554 20.4595 17.6711 20.6705 17.8794C20.8815 18.0877 21 18.3702 21 18.6649C21 18.9595 20.8815 19.242 20.6705 19.4503C20.4595 19.6586 20.1734 19.7757 19.875 19.7757H11.8088C11.5763 20.4261 11.1453 20.9893 10.5751 21.3877C10.0049 21.7861 9.32353 22 8.625 22C7.92647 22 7.24514 21.7861 6.67492 21.3877C6.10471 20.9893 5.67368 20.4261 5.44125 19.7757H4.125C3.82663 19.7757 3.54048 19.6586 3.32951 19.4503C3.11853 19.242 3 18.9595 3 18.6649C3 18.3702 3.11853 18.0877 3.32951 17.8794C3.54048 17.6711 3.82663 17.554 4.125 17.554H5.44125Z" fill="#A0A4B0"/>
</svg>
