<svg width="25" height="24" viewBox="0 0 25 24" fill="none" xmlns="http://www.w3.org/2000/svg">
<g clip-path="url(#clip0_1853_2627)">
<path d="M10.5 13C10.5 11.8954 11.3954 11 12.5 11C13.6046 11 14.5 11.8954 14.5 13V21H10.5V13Z" fill="#A0A4B0"/>
<path d="M13.7281 2.42739C13.377 2.15039 12.9449 2 12.5001 2C12.0553 2 11.6232 2.15039 11.2721 2.42739L2.8881 9.04018C2.1361 9.63553 2.5501 10.8577 3.5031 10.8577H4.5001V18.9715C4.5001 19.5095 4.71082 20.0255 5.08589 20.4059C5.46096 20.7863 5.96967 21 6.5001 21H10.5001V14.9146C10.5001 14.3766 10.7108 13.8607 11.0859 13.4803C11.461 13.0999 11.9697 12.8861 12.5001 12.8861C13.0305 12.8861 13.5392 13.0999 13.9143 13.4803C14.2894 13.8607 14.5001 14.3766 14.5001 14.9146V21H18.5001C19.0305 21 19.5392 20.7863 19.9143 20.4059C20.2894 20.0255 20.5001 19.5095 20.5001 18.9715V10.8577H21.4971C22.4491 10.8577 22.8651 9.63553 22.1121 9.04119L13.7281 2.42739Z" fill="#A0A4B0"/>
<path d="M10.5 16C10.5 14.8954 11.3954 14 12.5 14C13.6046 14 14.5 14.8954 14.5 16V21H10.5V16Z" fill="white"/>
</g>
<defs>
<clipPath id="clip0_1853_2627">
<rect width="24" height="24" fill="white" transform="translate(0.5)"/>
</clipPath>
</defs>
</svg>
