<svg width="24" height="24" viewBox="0 0 24 24" fill="none" xmlns="http://www.w3.org/2000/svg">
<g clip-path="url(#clip0_1838_1277)">
<path d="M10 13C10 11.8954 10.8954 11 12 11C13.1046 11 14 11.8954 14 13V21H10V13Z" fill="#7743DB"/>
<path d="M13.2281 2.42739C12.877 2.15039 12.4449 2 12.0001 2C11.5553 2 11.1232 2.15039 10.7721 2.42739L2.3881 9.04018C1.6361 9.63553 2.0501 10.8577 3.0031 10.8577H4.0001V18.9715C4.0001 19.5095 4.21082 20.0255 4.58589 20.4059C4.96096 20.7863 5.46967 21 6.0001 21H10.0001V14.9146C10.0001 14.3766 10.2108 13.8607 10.5859 13.4803C10.961 13.0999 11.4697 12.8861 12.0001 12.8861C12.5305 12.8861 13.0392 13.0999 13.4143 13.4803C13.7894 13.8607 14.0001 14.3766 14.0001 14.9146V21H18.0001C18.5305 21 19.0392 20.7863 19.4143 20.4059C19.7894 20.0255 20.0001 19.5095 20.0001 18.9715V10.8577H20.9971C21.9491 10.8577 22.3651 9.63553 21.6121 9.04119L13.2281 2.42739Z" fill="#7743DB"/>
<path d="M10 16C10 14.8954 10.8954 14 12 14C13.1046 14 14 14.8954 14 16V21H10V16Z" fill="white"/>
</g>
<defs>
<clipPath id="clip0_1838_1277">
<rect width="24" height="24" fill="white"/>
</clipPath>
</defs>
</svg>
