<svg width="79" height="80" viewBox="0 0 79 80" fill="none" xmlns="http://www.w3.org/2000/svg">
<rect x="4.13574" y="28.4927" width="71.6916" height="41.8201" fill="white"/>
<path d="M78.8945 39.4288C78.8945 45.904 78.9956 52.3838 78.8715 58.859C78.6187 72.4482 72.6766 78.7442 59.0598 79.0843C45.8107 79.4198 32.5477 79.1946 19.2894 79.1211C17.2535 79.1119 15.1855 78.7764 13.2002 78.3077C5.68179 76.52 0.865576 71.019 0.438184 63.2938C0.0567483 56.4555 -0.0121775 49.5989 0.00160937 42.7468C0.0153962 33.8405 0.0291836 24.925 0.447384 16.0279C0.874776 6.88264 7.10642 0.595848 16.2793 0.35228C30.8152 -0.0291554 45.3695 -0.0153686 59.9146 0.0122051C64.0277 0.0213963 68.0902 0.775077 71.661 3.1602C76.7851 6.58393 78.6371 11.7034 78.7934 17.4847C78.991 24.7917 78.8393 32.1126 78.8393 39.4242C78.8577 39.4242 78.8761 39.4242 78.8945 39.4242V39.4288ZM38.1728 67.1219C43.3566 66.86 47.1618 66.7405 50.9486 66.451C54.2069 66.2028 57.4651 65.8811 60.6867 65.348C62.8006 64.9988 64.7216 63.8866 64.8595 61.4601C65.3144 53.404 61.8723 45.0216 52.2813 42.4619C50.4155 41.9655 48.1498 41.9288 46.3346 42.5078C41.7206 43.9876 37.2996 44.1439 32.7499 42.3792C31.5459 41.9104 30.0385 41.7909 28.7655 42.0253C20.0155 43.62 14.8179 49.8424 14.3215 59.1164C14.0963 63.2938 15.6037 65.2239 19.7627 65.6192C26.3437 66.2442 32.943 66.7083 38.1774 67.1265L38.1728 67.1219ZM39.5514 12.3928C32.1111 12.356 26.0036 18.4268 26.022 25.8395C26.0403 33.0822 32.0008 39.0841 39.2343 39.1438C46.6792 39.2036 52.9385 33.1144 52.9339 25.8074C52.9339 18.5555 46.8125 12.425 39.5514 12.3882V12.3928Z" fill="currentColor"/>
<path d="M39.551 12.3882C46.8167 12.4249 52.9288 18.5555 52.9334 25.8074C52.9334 33.1098 46.6788 39.2036 39.2339 39.1438C32.0004 39.0841 26.0399 33.0822 26.0215 25.8395C26.0031 18.4222 32.1107 12.356 39.551 12.3928V12.3882Z" fill="white"/>
</svg>
