<svg width="25" height="24" viewBox="0 0 25 24" fill="none" xmlns="http://www.w3.org/2000/svg">
<path d="M3.78846 19.1409C3.78846 19.8992 4.11264 20.6264 4.68967 21.1626C5.26671 21.6988 6.04933 22 6.86538 22H11.2885C11.3395 22 11.3884 21.9812 11.4244 21.9477C11.4605 21.9142 11.4808 21.8687 11.4808 21.8213V13.6014C11.4808 13.554 11.4605 13.5085 11.4244 13.475C11.3884 13.4415 11.3395 13.4227 11.2885 13.4227H4.17308C4.07107 13.4227 3.97324 13.4603 3.90111 13.5274C3.82898 13.5944 3.78846 13.6853 3.78846 13.7801V19.1409ZM11.4808 11.8144V6.9897H13.0192V11.8144C13.0192 11.8618 13.0395 11.9073 13.0756 11.9408C13.1116 11.9743 13.1605 11.9931 13.2115 11.9931H19.9423C20.2044 11.9931 20.4645 11.9516 20.7115 11.8703C21.1611 11.722 21.5502 11.4481 21.8257 11.0862C22.1011 10.7243 22.2493 10.2921 22.25 9.8488V9.13403C22.25 8.56532 22.0069 8.0199 21.5741 7.61776C21.1413 7.21562 20.5543 6.9897 19.9423 6.9897H17.9933C17.9765 6.98945 17.9601 6.98514 17.9457 6.9772C17.9313 6.96926 17.9194 6.95795 17.9111 6.94441C17.9029 6.93087 17.8986 6.91556 17.8987 6.9C17.8987 6.88443 17.9032 6.86916 17.9115 6.85568C18.3567 6.15738 18.5012 5.32854 18.3163 4.53535C18.1313 3.74216 17.6305 3.04326 16.9142 2.5788C16.1979 2.11434 15.3192 1.91864 14.4542 2.03096C13.5892 2.14328 12.8018 2.5553 12.25 3.18441C11.6982 2.5553 10.9108 2.14328 10.0458 2.03096C9.18079 1.91864 8.30205 2.11434 7.58579 2.5788C6.86953 3.04326 6.36871 3.74216 6.18375 4.53535C5.99878 5.32854 6.14335 6.15738 6.58846 6.85568C6.59684 6.86916 6.60128 6.88443 6.60135 6.9C6.60142 6.91556 6.59711 6.93087 6.58885 6.94441C6.5806 6.95795 6.56867 6.96926 6.55427 6.9772C6.53987 6.98514 6.52348 6.98945 6.50673 6.9897H4.55769C3.94565 6.9897 3.35868 7.21562 2.92591 7.61776C2.49313 8.0199 2.25 8.56532 2.25 9.13403V9.8488C2.25068 10.2921 2.3989 10.7243 2.67433 11.0862C2.94976 11.4481 3.33892 11.722 3.78846 11.8703C4.03549 11.9516 4.29563 11.9931 4.55769 11.9931H11.2885C11.3395 11.9931 11.3884 11.9743 11.4244 11.9408C11.4605 11.9073 11.4808 11.8618 11.4808 11.8144ZM13.0192 5.20276C13.0192 4.84934 13.132 4.50385 13.3433 4.20999C13.5546 3.91613 13.855 3.68709 14.2064 3.55184C14.5578 3.41659 14.9444 3.38121 15.3175 3.45015C15.6905 3.5191 16.0332 3.68929 16.3021 3.9392C16.5711 4.18911 16.7542 4.50751 16.8284 4.85415C16.9026 5.20078 16.8646 5.56007 16.719 5.88659C16.5734 6.21311 16.327 6.49219 16.0107 6.68855C15.6945 6.8849 15.3227 6.9897 14.9423 6.9897H13.0192V5.20276ZM9.42019 3.42029C9.68365 3.40274 9.94818 3.43581 10.1973 3.51744C10.4464 3.59907 10.6747 3.7275 10.868 3.89474C11.0614 4.06198 11.2155 4.26443 11.321 4.48947C11.4264 4.71451 11.4808 4.95732 11.4808 5.20276V6.9897H9.55769C9.06043 6.98851 8.58299 6.80839 8.22558 6.48713C7.86817 6.16588 7.65857 5.72846 7.64078 5.2667C7.62299 4.80493 7.79839 4.35471 8.13016 4.01052C8.46194 3.66634 8.92429 3.45496 9.42019 3.42073V3.42029ZM13.2115 22H17.6346C18.4507 22 19.2333 21.6988 19.8103 21.1626C20.3874 20.6264 20.7115 19.8992 20.7115 19.1409V13.7801C20.7115 13.6853 20.671 13.5944 20.5989 13.5274C20.5268 13.4603 20.4289 13.4227 20.3269 13.4227H13.2115C13.1605 13.4227 13.1116 13.4415 13.0756 13.475C13.0395 13.5085 13.0192 13.554 13.0192 13.6014V21.8213C13.0192 21.8687 13.0395 21.9142 13.0756 21.9477C13.1116 21.9812 13.1605 22 13.2115 22Z" fill="#A0A4B0"/>
</svg>
