<svg width="20" height="20" viewBox="0 0 20 20" fill="none" xmlns="http://www.w3.org/2000/svg">
<path d="M9.16699 17.2916C4.68366 17.2916 1.04199 13.65 1.04199 9.16663C1.04199 4.68329 4.68366 1.04163 9.16699 1.04163C9.50866 1.04163 9.79199 1.32496 9.79199 1.66663C9.79199 2.00829 9.50866 2.29163 9.16699 2.29163C5.37533 2.29163 2.29199 5.37496 2.29199 9.16663C2.29199 12.9583 5.37533 16.0416 9.16699 16.0416C12.9587 16.0416 16.042 12.9583 16.042 9.16663C16.042 8.82496 16.3253 8.54163 16.667 8.54163C17.0087 8.54163 17.292 8.82496 17.292 9.16663C17.292 13.65 13.6503 17.2916 9.16699 17.2916Z" fill="#737373"/>
<path d="M16.667 4.79163H11.667C11.3253 4.79163 11.042 4.50829 11.042 4.16663C11.042 3.82496 11.3253 3.54163 11.667 3.54163H16.667C17.0087 3.54163 17.292 3.82496 17.292 4.16663C17.292 4.50829 17.0087 4.79163 16.667 4.79163Z" fill="#737373"/>
<path d="M14.167 7.29163H11.667C11.3253 7.29163 11.042 7.00829 11.042 6.66663C11.042 6.32496 11.3253 6.04163 11.667 6.04163H14.167C14.5087 6.04163 14.792 6.32496 14.792 6.66663C14.792 7.00829 14.5087 7.29163 14.167 7.29163Z" fill="#737373"/>
<path d="M16.7996 18.9917C16.7329 18.9917 16.6663 18.9833 16.6079 18.975C16.2163 18.925 15.5079 18.6583 15.1079 17.4667C14.8996 16.8417 14.9746 16.2167 15.3163 15.7417C15.6579 15.2667 16.2329 15 16.8913 15C17.7413 15 18.4079 15.325 18.7079 15.9C19.0079 16.475 18.9246 17.2083 18.4496 17.9167C17.8579 18.8083 17.2163 18.9917 16.7996 18.9917ZM16.2996 17.075C16.4413 17.5083 16.6413 17.725 16.7746 17.7417C16.9079 17.7583 17.1579 17.6 17.4163 17.225C17.6579 16.8667 17.6746 16.6083 17.6163 16.4917C17.5579 16.375 17.3246 16.25 16.8913 16.25C16.6329 16.25 16.4413 16.3333 16.3329 16.475C16.2329 16.6167 16.2163 16.8333 16.2996 17.075Z" fill="#737373"/>
</svg>
