<svg width="14" height="15" viewBox="0 0 14 15" fill="none" xmlns="http://www.w3.org/2000/svg">
<path d="M6.42283 12.1783C9.32554 12.1783 11.6787 9.82518 11.6787 6.92246C11.6787 4.01974 9.32554 1.66663 6.42283 1.66663C3.52011 1.66663 1.16699 4.01974 1.16699 6.92246C1.16699 9.82518 3.52011 12.1783 6.42283 12.1783Z" fill="#0B2C6E"/>
<path d="M12.8277 11.5542C12.6352 11.1983 12.2269 11 11.6785 11C11.2644 11 10.9085 11.1692 10.6985 11.4608C10.4885 11.7525 10.4419 12.1433 10.5702 12.5342C10.821 13.2925 11.2585 13.4617 11.4977 13.4908C11.5327 13.4967 11.5677 13.4967 11.6085 13.4967C11.8652 13.4967 12.2619 13.3858 12.6469 12.8083C12.956 12.3592 13.0144 11.91 12.8277 11.5542Z" fill="#0B2C6E"/>
</svg>
