<svg width="79" height="79" viewBox="0 0 79 79" fill="currentColor" xmlns="http://www.w3.org/2000/svg">
<path d="M78.8745 39.6282C78.8745 46.4022 78.9665 53.1807 78.8562 59.9546C78.6631 71.7929 72.0225 78.5347 60.2072 78.668C46.811 78.8196 33.4101 78.7461 20.0139 78.7093C18.1205 78.7047 16.2134 78.4841 14.3429 78.167C6.43849 76.8297 1.00188 71.2368 0.477983 63.1761C-0.013748 55.6761 3.887e-05 48.1301 3.887e-05 40.6025C3.887e-05 32.4637 0.0184213 24.3156 0.441218 16.1952C0.919161 6.89827 7.12324 0.62986 16.3926 0.386293C30.8412 0.00485709 45.299 0.0737913 59.7568 0.000261472C61.2642 -0.00892975 62.7945 0.225446 64.2835 0.505779C73.2265 2.20156 78.4426 8.05637 78.7413 17.2476C78.9848 24.7017 78.7918 32.165 78.7918 39.6282H78.8745ZM39.6326 29.403C31.3329 29.403 23.0332 29.4122 14.7336 29.3938C12.9229 29.3938 11.5856 29.9866 11.2409 31.9122C10.7262 34.7799 11.4201 35.9931 13.5709 36.903C14.3016 37.2109 15.1242 38.0657 15.2988 38.8148C16.6499 44.665 17.8172 50.5612 19.1224 56.4252C19.9864 60.3131 22.2796 62.0778 26.2272 62.0778C35.06 62.0778 43.8927 62.0778 52.7255 62.0778C56.6915 62.0778 58.9388 60.2993 59.789 56.4114C61.0528 50.6163 62.2338 44.8029 63.5666 39.0262C63.7504 38.2358 64.4489 37.2569 65.1658 36.949C67.4728 35.9425 68.1208 34.8672 67.6061 31.8295C67.2476 29.7017 65.7035 29.3846 63.8561 29.3938C55.7862 29.4306 47.7117 29.4076 39.6418 29.4076L39.6326 29.403ZM57.4911 27.7348C57.606 27.5464 57.7209 27.3579 57.8404 27.1649C54.0582 22.9507 50.3404 18.6768 46.4525 14.5592C45.2163 13.2494 43.4883 13.3046 42.1832 14.6924C40.901 16.0619 41.3054 17.4268 42.5003 18.7182C44.9222 21.3423 47.2705 24.0353 49.7154 26.641C50.1887 27.1465 50.9332 27.6383 51.5858 27.6842C53.5435 27.8221 55.5196 27.7348 57.4866 27.7348H57.4911ZM21.0433 27.7348C23.718 27.7348 25.6757 27.7945 27.6289 27.6934C28.1436 27.6658 28.7456 27.243 29.1178 26.8294C31.5719 24.1318 33.9662 21.379 36.3927 18.6539C37.5922 17.3027 37.6978 15.8919 36.4111 14.6051C35.0002 13.1943 33.3688 13.4654 32.1831 14.7935C28.5526 18.8561 25.0645 23.0427 21.0479 27.7302L21.0433 27.7348Z" fill="currentColor"/>
<path d="M39.6324 29.4031C47.7023 29.4031 55.7768 29.4261 63.8467 29.3893C65.6942 29.3802 67.2337 29.7018 67.5967 31.825C68.1115 34.8627 67.4635 35.9381 65.1565 36.9445C64.4442 37.257 63.741 38.2313 63.5572 39.0217C62.2245 44.7984 61.048 50.6119 59.7796 56.407C58.9294 60.2948 56.6822 62.0733 52.7162 62.0733C43.8834 62.0733 35.0506 62.0733 26.2179 62.0733C22.2702 62.0733 19.9816 60.3132 19.113 56.4207C17.8079 50.5567 16.6452 44.6652 15.2895 38.8104C15.1149 38.0659 14.2922 37.2065 13.5615 36.8986C11.4108 35.9886 10.7214 34.7754 11.2316 31.9077C11.5762 29.9822 12.9136 29.3848 14.7242 29.3893C23.0239 29.4077 31.3236 29.3985 39.6233 29.3985L39.6324 29.4031ZM30.933 53.2911C30.4458 48.9299 29.9863 45.1753 29.6278 41.4115C29.5037 40.1293 29.012 39.1872 27.7206 39.6422C27.1232 39.8536 26.466 41.0806 26.5304 41.7883C26.8612 45.5521 27.33 49.3113 27.9504 53.0384C28.0745 53.7783 29.0533 54.3757 29.637 55.0421C30.1563 54.3435 30.671 53.645 30.933 53.2911ZM48.2354 53.1165C48.4422 53.4152 48.9983 54.2286 49.5544 55.0421C50.1334 54.2608 51.0755 53.5393 51.2272 52.6845C51.8522 49.0907 52.252 45.4602 52.7024 41.8389C52.8402 40.7129 52.7621 39.4445 51.2639 39.6238C50.6252 39.7019 49.7106 40.7267 49.6049 41.4299C49.0581 45.0328 48.7318 48.6725 48.24 53.1211L48.2354 53.1165ZM40.9284 47.0549C40.9284 47.0549 40.9698 47.0549 40.9882 47.0549C40.9882 45.088 41.1168 43.1027 40.91 41.1587C40.8503 40.5751 39.8668 40.0879 39.3062 39.5548C38.8236 40.0879 37.9413 40.6164 37.9275 41.1633C37.8264 45.0971 37.8356 49.0402 37.9872 52.974C38.0148 53.6772 38.8512 54.3481 39.3154 55.0375C39.853 54.3481 40.7768 53.7001 40.8595 52.9556C41.0801 51.0117 40.933 49.0264 40.933 47.0595L40.9284 47.0549Z" fill="white"/>
<path d="M57.4866 27.7349C55.5197 27.7349 53.5436 27.8222 51.5859 27.6843C50.9333 27.6384 50.1888 27.1466 49.7155 26.6411C47.2706 24.0354 44.9222 21.3424 42.5004 18.7183C41.3055 17.4223 40.9011 16.0574 42.1833 14.6925C43.4884 13.3046 45.2118 13.2495 46.4526 14.5592C50.3405 18.6769 54.0583 22.9508 57.8405 27.165C57.7256 27.3534 57.6107 27.5418 57.4912 27.7349H57.4866Z" fill="white"/>
<path d="M21.0388 27.7348C25.0553 23.0473 28.548 18.8607 32.1739 14.7982C33.3596 13.4701 34.9911 13.1989 36.4019 14.6098C37.6933 15.8965 37.583 17.3074 36.3835 18.6585C33.9616 21.3837 31.5627 24.1365 29.1087 26.8341C28.7364 27.2477 28.1344 27.6705 27.6197 27.6981C25.6712 27.7992 23.7088 27.7394 21.0342 27.7394L21.0388 27.7348Z" fill="white"/>
<path d="M30.9328 53.291C30.6708 53.6449 30.1515 54.3434 29.6368 55.0419C29.0532 54.3802 28.0743 53.7781 27.9502 53.0383C27.3298 49.3112 26.8611 45.552 26.5302 41.7882C26.4704 41.0805 27.123 39.8534 27.7204 39.642C29.0072 39.1871 29.5035 40.1292 29.6276 41.4114C29.9861 45.1752 30.4456 48.9298 30.9328 53.291Z" fill="#717071"/>
<path d="M48.236 53.1164C48.7278 48.6679 49.0541 45.0281 49.6009 41.4252C49.7066 40.7266 50.6212 39.6972 51.26 39.6191C52.7581 39.4399 52.8408 40.7083 52.6984 41.8342C52.248 45.4555 51.8482 49.0861 51.2232 52.6798C51.0761 53.5392 50.1294 54.2561 49.5504 55.0374C48.9943 54.2239 48.4382 53.4151 48.2314 53.1118L48.236 53.1164Z" fill="currentColor"/>
<path d="M40.9282 47.0547C40.9282 49.0216 41.0753 51.0069 40.8547 52.9509C40.772 53.6907 39.8482 54.3387 39.3106 55.0327C38.8464 54.3479 38.01 53.6724 37.9824 52.9692C37.8354 49.0354 37.8262 45.097 37.9227 41.1585C37.9365 40.6116 38.8234 40.0877 39.3014 39.55C39.862 40.0831 40.8455 40.5703 40.9052 41.1539C41.1074 43.1025 40.9834 45.0832 40.9834 47.0501C40.965 47.0501 40.942 47.0501 40.9236 47.0501L40.9282 47.0547Z" fill="#717071"/>
</svg>
