<svg width="79" height="79" viewBox="0 0 79 79" fill="none" xmlns="http://www.w3.org/2000/svg">
<path d="M78.8964 39.3729C78.8964 46.2249 78.9423 53.0724 78.8688 59.9244C78.8458 61.8868 78.6068 63.8721 78.2346 65.8022C76.7686 73.3712 71.3779 76.7214 64.457 78.2334C62.4716 78.6654 60.3852 78.7848 58.3448 78.794C45.9366 78.8446 33.5331 78.863 21.1249 78.7802C18.5606 78.7619 15.9503 78.4953 13.4457 77.953C6.03293 76.3492 1.21673 70.9355 0.49522 63.3803C0.141358 59.6809 0.0678368 55.9446 0.0448587 52.2222C-0.0102886 42.3278 -0.0286722 32.4335 0.0724313 22.5391C0.100005 19.5888 0.297612 16.5924 0.872063 13.711C2.52648 5.42508 7.94931 0.645643 16.442 0.392884C28.0735 0.0482131 39.7142 0.0619999 51.3549 0.00225693C54.9992 -0.0161255 58.6573 0.0757867 62.2878 0.351523C72.4441 1.11899 78.3771 7.27711 78.809 17.4564C78.9653 21.1053 78.9055 24.7634 78.9239 28.4123C78.9423 32.0658 78.9239 35.7194 78.9239 39.3729H78.8918H78.8964ZM64.4983 29.4647H64.5167C64.5167 27.1807 64.5167 24.8967 64.5167 22.6127C64.5167 17.5299 61.4147 14.3819 56.3043 14.3452C51.888 14.313 47.4716 14.4187 43.0598 14.3038C40.2702 14.2303 38.0735 15.1954 36.1388 17.1439C29.2638 24.0511 22.3336 30.8986 15.4402 37.7874C12.7885 40.4391 12.7609 42.6358 15.3574 45.269C21.3455 51.3352 27.3474 57.3923 33.3814 63.4217C36.3042 66.3445 38.409 66.3123 41.3548 63.362C47.9679 56.7351 54.5028 50.0255 61.1987 43.4813C63.6113 41.1238 64.8476 38.5594 64.5305 35.1725C64.3558 33.2837 64.4983 31.3673 64.4983 29.4647Z" fill="currentColor"/>
<path d="M64.5024 29.4602C64.5024 31.3628 64.3553 33.2792 64.5346 35.168C64.8517 38.555 63.62 41.1193 61.2027 43.4769C54.5069 50.021 47.972 56.7306 41.3589 63.3575C38.4131 66.3079 36.3083 66.34 33.3855 63.4172C27.3561 57.3878 21.3542 51.3354 15.3615 45.2646C12.765 42.6313 12.7925 40.4392 15.4442 37.7829C22.333 30.8941 29.2678 24.0466 36.1429 17.1394C38.0822 15.1909 40.2789 14.2258 43.0639 14.2993C47.4757 14.4142 51.892 14.3085 56.3084 14.3407C61.4187 14.3774 64.5208 17.5208 64.5208 22.6082C64.5208 24.8922 64.5208 27.1762 64.5208 29.4602H64.5024ZM31.8735 49.9245C32.5537 49.3684 33.1006 48.9916 33.5647 48.532C38.3487 43.7618 43.142 39.0099 47.8479 34.1661C48.3672 33.6285 48.3534 32.5715 48.5832 31.758C47.6503 31.8592 46.4554 31.6386 45.835 32.1303C44.2403 33.3941 42.903 34.975 41.4554 36.4272C38.0317 39.8693 34.5804 43.2884 31.2026 46.7765C30.766 47.2269 30.5086 48.0587 30.5546 48.6883C30.5822 49.0881 31.3221 49.4328 31.8735 49.9199V49.9245ZM51.0464 46.009C51.0418 43.123 48.9233 41.0366 45.9729 41.0136C43.0317 40.9906 40.4306 43.8077 40.3846 47.0614C40.3479 49.6809 42.4618 51.7168 45.2376 51.7444C48.528 51.7719 51.0556 49.2811 51.0464 46.0136V46.009ZM39.5666 33.7709C39.6769 30.8114 37.7192 28.6836 34.7918 28.5733C31.5978 28.4538 29.1575 30.8205 28.9691 34.2259C28.8174 36.9281 30.7246 38.9824 33.4958 39.111C36.8828 39.2673 39.4471 37.0154 39.5666 33.7709ZM54.8746 27.9759C56.8783 27.9759 58.6981 26.1882 58.6889 24.2442C58.6798 22.1532 57.0253 20.4528 54.9849 20.4345C52.779 20.4115 51.1246 22.0705 51.1384 24.2948C51.1521 26.4639 52.6917 27.9805 54.87 27.9759H54.8746Z" fill="white"/>
<path d="M31.8692 49.9243C31.3177 49.4372 30.5778 49.0925 30.5502 48.6927C30.5042 48.0631 30.7616 47.2313 31.1982 46.7809C34.5714 43.2882 38.0227 39.8737 41.451 36.4316C42.894 34.9794 44.2359 33.3939 45.8306 32.1347C46.4556 31.6384 47.6459 31.8636 48.5788 31.7625C48.3444 32.5805 48.3628 33.6375 47.8435 34.1706C43.1376 39.0143 38.3398 43.7708 33.5603 48.5364C33.0962 49.0006 32.5493 49.3728 31.8692 49.9289V49.9243Z" fill="currentColor"/>
<path d="M51.0461 46.009C51.0553 49.2764 48.5277 51.7719 45.2372 51.7397C42.4569 51.7167 40.3475 49.6763 40.3843 47.0568C40.4302 43.8031 43.0313 40.986 45.9725 41.0089C48.9229 41.0319 51.0415 43.1183 51.0461 46.0044V46.009ZM45.1086 48.7939C47.6683 48.7617 48.1509 47.5071 48.0865 46.1652C48.0084 44.6487 46.8043 43.6744 45.4302 44.0788C44.5571 44.3362 43.4128 45.6781 43.4495 46.4823C43.4955 47.4152 44.7087 48.2884 45.1086 48.7985V48.7939Z" fill="currentColor"/>
<path d="M39.562 33.7708C39.4425 37.0153 36.8781 39.2718 33.4912 39.1109C30.7154 38.9822 28.8129 36.928 28.9645 34.2258C29.1529 30.8204 31.5886 28.4537 34.7871 28.5732C37.7191 28.6835 39.6723 30.8112 39.562 33.7708ZM36.9701 34.5061L37.016 33.4583C36.1061 32.7782 35.2835 31.7441 34.2632 31.496C32.6226 31.0962 31.9746 32.4978 31.9149 33.8351C31.8505 35.3471 32.9121 36.3581 34.3414 36.1743C35.2743 36.0548 36.0969 35.0898 36.9655 34.5015L36.9701 34.5061Z" fill="currentColor"/>
<path d="M54.8694 27.9757C52.6911 27.9757 51.1516 26.4638 51.1378 24.2946C51.124 22.0704 52.7738 20.4113 54.9843 20.4343C57.0248 20.4573 58.6746 22.1577 58.6884 24.2441C58.6976 26.188 56.8777 27.9711 54.874 27.9757H54.8694Z" fill="currentColor"/>
<path d="M45.1093 48.7939C44.7095 48.2838 43.4963 47.4106 43.4503 46.4777C43.4089 45.6735 44.5578 44.3315 45.431 44.0742C46.8051 43.6698 48.0092 44.6486 48.0873 46.1606C48.1562 47.5025 47.6737 48.7617 45.1093 48.7893V48.7939Z" fill="white"/>
<path d="M36.9694 34.5062C36.0962 35.0944 35.2736 36.0595 34.3453 36.179C32.916 36.3628 31.8545 35.3472 31.9188 33.8398C31.9785 32.4979 32.6265 31.1009 34.2671 31.5007C35.2828 31.7488 36.1054 32.7828 37.0199 33.463L36.974 34.5108L36.9694 34.5062Z" fill="white"/>
</svg>
