<svg width="20" height="21" viewBox="0 0 20 21" fill="none" xmlns="http://www.w3.org/2000/svg">
<path d="M8.75 1.22169C9.5235 0.775106 10.4765 0.775106 11.25 1.22169L17.4103 4.77831C18.1838 5.22489 18.6603 6.05021 18.6603 6.94338V14.0566C18.6603 14.9498 18.1838 15.7751 17.4103 16.2217L11.25 19.7783C10.4765 20.2249 9.5235 20.2249 8.75 19.7783L2.58975 16.2217C1.81624 15.7751 1.33975 14.9498 1.33975 14.0566V6.94338C1.33975 6.05021 1.81624 5.22489 2.58975 4.77831L8.75 1.22169Z" fill="#F6C54D"/>
<path d="M9.16732 1.81462C9.68298 1.5169 10.3183 1.5169 10.834 1.81462L17.1059 5.4357C17.6216 5.73342 17.9392 6.28364 17.9392 6.87908V14.1212C17.9392 14.7167 17.6216 15.2669 17.1059 15.5646L10.834 19.1857C10.3183 19.4834 9.68299 19.4834 9.16732 19.1857L2.89542 15.5646C2.37975 15.2669 2.06208 14.7167 2.06208 14.1212V6.87908C2.06208 6.28364 2.37975 5.73343 2.89542 5.4357L9.16732 1.81462Z" fill="url(#paint0_linear_1822_1113)"/>
<path opacity="0.5" d="M10.487 5.63867H9.51476C8.59795 5.63867 8.14003 5.63867 7.85517 5.92353C7.57031 6.20839 7.57031 6.66631 7.57031 7.58312V9.52756H12.4314V7.58312C12.4314 6.66631 12.4314 6.20839 12.1466 5.92353C11.8617 5.63867 11.4038 5.63867 10.487 5.63867Z" fill="white"/>
<path fill-rule="evenodd" clip-rule="evenodd" d="M10.0002 15.3608C11.0316 15.3608 12.0208 14.9511 12.7501 14.2218C13.4794 13.4924 13.8891 12.5033 13.8891 11.4719C13.8891 10.4405 13.4794 9.45134 12.7501 8.72204C12.0208 7.99273 11.0316 7.58301 10.0002 7.58301C8.96882 7.58301 7.97967 7.99273 7.25036 8.72204C6.52105 9.45134 6.11133 10.4405 6.11133 11.4719C6.11133 12.5033 6.52105 13.4924 7.25036 14.2218C7.97967 14.9511 8.96882 15.3608 10.0002 15.3608ZM10.0002 10.0136C9.86216 10.0136 9.7698 10.1788 9.58508 10.5109L9.53744 10.5964C9.48494 10.6907 9.45869 10.7374 9.41786 10.7685C9.37654 10.7996 9.32549 10.8113 9.22341 10.8341L9.13105 10.8555C8.7723 10.9367 8.59293 10.977 8.55015 11.1141C8.50737 11.2517 8.62987 11.3946 8.87438 11.6804L8.93758 11.7543C9.00709 11.8355 9.04209 11.8759 9.05765 11.9264C9.0732 11.977 9.06786 12.0309 9.05765 12.1393L9.04793 12.238C9.01098 12.6196 8.99251 12.8106 9.10383 12.8952C9.21563 12.9798 9.38383 12.9025 9.71973 12.7479L9.80626 12.7081C9.90202 12.6643 9.94966 12.642 10.0002 12.642C10.0508 12.642 10.0984 12.6643 10.1942 12.7081L10.2807 12.7479C10.6166 12.903 10.7848 12.9798 10.8966 12.8952C11.0084 12.8106 10.9895 12.6196 10.9525 12.238L10.9428 12.1393C10.9326 12.0309 10.9272 11.977 10.9428 11.9264C10.9583 11.8763 10.9933 11.8355 11.0629 11.7543L11.126 11.6804C11.3706 11.3946 11.4931 11.2517 11.4503 11.1141C11.4075 10.977 11.2281 10.9367 10.8694 10.8555L10.777 10.8341C10.6749 10.8113 10.6239 10.8001 10.5826 10.7685C10.5417 10.7374 10.5155 10.6907 10.463 10.5964L10.4154 10.5109C10.2306 10.1788 10.1383 10.0136 10.0002 10.0136Z" fill="white"/>
<defs>
<linearGradient id="paint0_linear_1822_1113" x1="0.833699" y1="19.6667" x2="19.1671" y2="1.33327" gradientUnits="userSpaceOnUse">
<stop stop-color="#E8A312"/>
<stop offset="1" stop-color="#FFDA72"/>
</linearGradient>
</defs>
</svg>
