<svg width="20" height="21" viewBox="0 0 20 21" fill="none" xmlns="http://www.w3.org/2000/svg">
<path d="M3.33268 3.8335C2.89065 3.8335 2.46673 4.00909 2.15417 4.32165C1.84161 4.63421 1.66602 5.05814 1.66602 5.50016V8.8335C2.10804 8.8335 2.53197 9.00909 2.84453 9.32165C3.15709 9.63421 3.33268 10.0581 3.33268 10.5002C3.33268 10.9422 3.15709 11.3661 2.84453 11.6787C2.53197 11.9912 2.10804 12.1668 1.66602 12.1668V15.5002C1.66602 15.9422 1.84161 16.3661 2.15417 16.6787C2.46673 16.9912 2.89065 17.1668 3.33268 17.1668H16.666C17.108 17.1668 17.532 16.9912 17.8445 16.6787C18.1571 16.3661 18.3327 15.9422 18.3327 15.5002V12.1668C17.8907 12.1668 17.4667 11.9912 17.1542 11.6787C16.8416 11.3661 16.666 10.9422 16.666 10.5002C16.666 10.0581 16.8416 9.63421 17.1542 9.32165C17.4667 9.00909 17.8907 8.8335 18.3327 8.8335V5.50016C18.3327 5.05814 18.1571 4.63421 17.8445 4.32165C17.532 4.00909 17.108 3.8335 16.666 3.8335H3.33268ZM12.916 6.3335L14.166 7.5835L7.08268 14.6668L5.83268 13.4168L12.916 6.3335ZM7.34102 6.36683C8.15768 6.36683 8.81602 7.02516 8.81602 7.84183C8.81602 8.23302 8.66061 8.6082 8.384 8.88481C8.10738 9.16143 7.73221 9.31683 7.34102 9.31683C6.52435 9.31683 5.86602 8.6585 5.86602 7.84183C5.86602 7.45064 6.02142 7.07546 6.29803 6.79885C6.57465 6.52223 6.94982 6.36683 7.34102 6.36683ZM12.6577 11.6835C13.4743 11.6835 14.1327 12.3418 14.1327 13.1585C14.1327 13.5497 13.9773 13.9249 13.7007 14.2015C13.424 14.4781 13.0489 14.6335 12.6577 14.6335C11.841 14.6335 11.1827 13.9752 11.1827 13.1585C11.1827 12.7673 11.3381 12.3921 11.6147 12.1155C11.8913 11.8389 12.2665 11.6835 12.6577 11.6835Z" fill="#F9FAFB"/>
</svg>
